<?xml version="1.0" encoding="utf-8"?>
<!-- Generator: Adobe Illustrator 17.0.1, SVG Export Plug-In . SVG Version: 6.00 Build 0)  -->
<!DOCTYPE svg PUBLIC "-//W3C//DTD SVG 1.1//EN" "http://www.w3.org/Graphics/SVG/1.1/DTD/svg11.dtd">
<svg version="1.1" id="Layer_1" xmlns="http://www.w3.org/2000/svg" xmlns:xlink="http://www.w3.org/1999/xlink" x="0px" y="0px"
	 width="68px" height="68px" viewBox="0 0 68 68" enable-background="new 0 0 68 68" xml:space="preserve">
<circle fill="#FFFFFF" cx="34" cy="34" r="34"/>
<polyline fill="none" stroke="#5A5A5C" stroke-linecap="square" stroke-miterlimit="10" points="41.635,20.559 47.785,20.559 
	47.785,51.989 22.485,51.989 22.485,20.559 28.635,20.559 "/>
<rect x="28.635" y="17.784" fill="none" stroke="#5A5A5C" stroke-linecap="square" stroke-miterlimit="10" width="13" height="5.545"/>
<circle fill="none" stroke="#5A5A5C" stroke-linecap="square" stroke-miterlimit="10" cx="35.135" cy="17.284" r="3.272"/>
<g>
	
		<line fill="none" stroke="#5A5A5C" stroke-linecap="square" stroke-miterlimit="10" x1="25.45" y1="29.117" x2="26.814" y2="30.481"/>
	
		<line fill="none" stroke="#5A5A5C" stroke-linecap="square" stroke-miterlimit="10" x1="26.814" y1="30.481" x2="30.415" y2="26.88"/>
</g>
<g>
	
		<line fill="none" stroke="#5A5A5C" stroke-linecap="square" stroke-miterlimit="10" x1="25.45" y1="35.084" x2="26.814" y2="36.448"/>
	
		<line fill="none" stroke="#5A5A5C" stroke-linecap="square" stroke-miterlimit="10" x1="26.814" y1="36.448" x2="30.415" y2="32.847"/>
</g>
<line fill="none" stroke="#5A5A5C" stroke-linecap="square" stroke-miterlimit="10" x1="33.488" y1="28.68" x2="44.512" y2="28.68"/>
<line fill="none" stroke="#5A5A5C" stroke-linecap="square" stroke-miterlimit="10" x1="33.488" y1="34.648" x2="44.512" y2="34.648"/>
<line fill="none" stroke="#5A5A5C" stroke-linecap="square" stroke-miterlimit="10" x1="33.488" y1="40.615" x2="44.512" y2="40.615"/>
<line fill="none" stroke="#5A5A5C" stroke-linecap="square" stroke-miterlimit="10" x1="33.488" y1="46.582" x2="44.512" y2="46.582"/>
<rect x="25.595" y="40.014" fill="#5A5A5C" width="3.47" height="3.47"/>
</svg>
