<?xml version="1.0" encoding="utf-8"?>
<!-- Generator: Adobe Illustrator 17.0.1, SVG Export Plug-In . SVG Version: 6.00 Build 0)  -->
<!DOCTYPE svg PUBLIC "-//W3C//DTD SVG 1.1//EN" "http://www.w3.org/Graphics/SVG/1.1/DTD/svg11.dtd">
<svg version="1.1" id="Layer_1" xmlns="http://www.w3.org/2000/svg" xmlns:xlink="http://www.w3.org/1999/xlink" x="0px" y="0px"
	 width="68px" height="68px" viewBox="0 0 68 68" enable-background="new 0 0 68 68" xml:space="preserve">
<circle fill="#FFFFFF" cx="34" cy="34" r="34"/>
<g>
	<circle fill="none" stroke="#5A5A5C" stroke-miterlimit="10" cx="34" cy="35.743" r="13.667"/>
	<line fill="none" stroke="#5A5A5C" stroke-miterlimit="10" x1="45.167" y1="35.743" x2="50.167" y2="35.743"/>
	<line fill="none" stroke="#5A5A5C" stroke-miterlimit="10" x1="34" y1="46.91" x2="34" y2="51.91"/>
	<line fill="none" stroke="#5A5A5C" stroke-miterlimit="10" x1="22.833" y1="35.743" x2="17.833" y2="35.743"/>
	<line fill="none" stroke="#5A5A5C" stroke-miterlimit="10" x1="34" y1="24.576" x2="34" y2="19.576"/>
	<g>
		<path fill="#5A5A5C" d="M30.302,32.042l3.99,2.021l-1.986,1.961L30.302,32.042 M28.042,29.777l3.989,7.924l3.952-3.903
			L28.042,29.777L28.042,29.777z"/>
	</g>
	<circle fill="none" stroke="#5A5A5C" stroke-linecap="square" stroke-miterlimit="10" cx="34" cy="17.369" r="3.171"/>
	<g>
		<polygon fill="#5A5A5C" points="32.858,37.596 35.826,34.663 38.823,40.616 		"/>
		<path fill="#5A5A5C" d="M35.689,35.502l2.004,3.982l-3.99-2.021L35.689,35.502 M35.964,33.825l-3.952,3.903l7.941,4.022
			L35.964,33.825L35.964,33.825z"/>
	</g>
	<circle fill="none" stroke="#5A5A5C" stroke-linecap="square" stroke-miterlimit="10" cx="34" cy="35.743" r="9.646"/>
</g>
</svg>
