<?xml version="1.0" encoding="utf-8"?>
<!-- Generator: Adobe Illustrator 17.0.1, SVG Export Plug-In . SVG Version: 6.00 Build 0)  -->
<!DOCTYPE svg PUBLIC "-//W3C//DTD SVG 1.1//EN" "http://www.w3.org/Graphics/SVG/1.1/DTD/svg11.dtd">
<svg version="1.1" id="Layer_1" xmlns="http://www.w3.org/2000/svg" xmlns:xlink="http://www.w3.org/1999/xlink" x="0px" y="0px"
	 width="37.537px" height="37.537px" viewBox="0 0 37.537 37.537" enable-background="new 0 0 37.537 37.537" xml:space="preserve">
<circle opacity="0.5" fill="#222222" cx="18.768" cy="18.769" r="18.768"/>
<path fill="#5C5C5A" d="M12.806,18.665c1.697,0,3.298,0.665,4.501,1.873c1.2,1.209,1.863,2.818,1.863,4.529h2.619
	c0-4.971-4.03-9.022-8.983-9.022V18.665z M12.809,14.021c6.059,0,10.989,4.956,10.989,11.051h2.622
	c0-7.538-6.108-13.67-13.611-13.67V14.021z M16.433,23.24c0,1.003-0.813,1.815-1.818,1.815c-1,0-1.812-0.813-1.812-1.815
	c0-1.003,0.813-1.815,1.812-1.815C15.621,21.425,16.433,22.238,16.433,23.24z"/>
</svg>
