<?xml version="1.0" encoding="utf-8"?>
<!-- Generator: Adobe Illustrator 17.0.1, SVG Export Plug-In . SVG Version: 6.00 Build 0)  -->
<!DOCTYPE svg PUBLIC "-//W3C//DTD SVG 1.1//EN" "http://www.w3.org/Graphics/SVG/1.1/DTD/svg11.dtd">
<svg version="1.1" id="Layer_1" xmlns="http://www.w3.org/2000/svg" xmlns:xlink="http://www.w3.org/1999/xlink" x="0px" y="0px"
	 width="37.537px" height="37.537px" viewBox="0 0 37.537 37.537" enable-background="new 0 0 37.537 37.537" xml:space="preserve">
<circle opacity="0.5" fill="#222222" cx="18.768" cy="18.769" r="18.769"/>
<path fill="#5C5C5A" d="M28.149,12.95c-0.69,0.306-1.432,0.513-2.21,0.606c0.794-0.476,1.405-1.23,1.692-2.129
	c-0.745,0.442-1.567,0.762-2.444,0.934c-0.702-0.747-1.703-1.215-2.81-1.215c-2.126,0-3.849,1.724-3.849,3.849
	c0,0.302,0.034,0.595,0.1,0.877c-3.199-0.161-6.035-1.693-7.934-4.021c-0.331,0.568-0.521,1.229-0.521,1.934
	c0,1.336,0.681,2.514,1.712,3.204c-0.63-0.021-1.224-0.193-1.743-0.482c0,0.017,0,0.033,0,0.05c0,1.864,1.326,3.42,3.086,3.773
	c-0.322,0.088-0.663,0.135-1.013,0.135c-0.248,0-0.489-0.024-0.724-0.068c0.489,1.528,1.911,2.641,3.593,2.672
	c-1.315,1.032-2.975,1.648-4.778,1.648c-0.311,0-0.617-0.019-0.918-0.054c1.703,1.092,3.726,1.73,5.9,1.73
	c7.08,0,10.952-5.866,10.952-10.951c0-0.166-0.004-0.334-0.011-0.498C26.981,14.4,27.634,13.722,28.149,12.95z"/>
</svg>
