<?xml version="1.0" encoding="utf-8"?>
<!-- Generator: Adobe Illustrator 17.0.1, SVG Export Plug-In . SVG Version: 6.00 Build 0)  -->
<!DOCTYPE svg PUBLIC "-//W3C//DTD SVG 1.1//EN" "http://www.w3.org/Graphics/SVG/1.1/DTD/svg11.dtd">
<svg version="1.1" id="Layer_1" xmlns="http://www.w3.org/2000/svg" xmlns:xlink="http://www.w3.org/1999/xlink" x="0px" y="0px"
	 width="37.537px" height="37.537px" viewBox="0 0 37.537 37.537" enable-background="new 0 0 37.537 37.537" xml:space="preserve">
<circle opacity="0.5" fill="#222222" cx="18.768" cy="18.769" r="18.768"/>
<path fill="#5C5C5A" d="M9.748,16.733v0.093c0.248,0.237,0.314,0.625,0.679,0.678c0.857,0.126,1.674-0.795,2.246,0.157
	c0.202,0.477,0.308,0.98,0.482,1.476c0.298,0.847,0.527,1.769,0.771,2.743c0.265,1.063,0.569,2.461,1.132,3.485
	c0.342,0.753,0.789,1.374,1.413,1.638c0.728,0.309,1.821-0.103,2.375-0.433c1.5-0.887,2.668-2.174,3.668-3.483
	c2.287-3.098,3.549-6.607,3.739-7.61c0.117-0.658,0.12-1.332-0.244-1.859c-0.06-0.176-0.146-0.34-0.266-0.491
	c-0.598-0.757-1.871-0.786-2.743-0.652c-0.709,0.109-3.109,1.167-3.925,3.702c0.125-0.009,0.244-0.016,0.359-0.02
	c-0.058,0.137-0.11,0.278-0.158,0.424c0.867-0.066,1.486-0.016,1.813,0.378c0.065,0.236,0.084,0.537,0.05,0.916
	c-0.058,0.666-0.395,1.396-0.77,2.096c-0.435,0.807-1.249,2.391-2.315,1.249c-0.112-0.12-0.21-0.254-0.295-0.396
	c-0.445-1.063-0.44-2.482-0.612-3.502c-0.123-0.735-0.252-1.65-0.493-2.405c-0.073-0.231-0.182-0.479-0.316-0.711
	c-0.242-0.569-0.658-1.152-1.149-1.295c-0.625-0.185-1.397,0.102-1.85,0.369c-1.444,0.849-2.544,2.056-3.793,3.052v0.093
	c0.09,0.086,0.156,0.192,0.221,0.295C9.761,16.722,9.754,16.729,9.748,16.733z"/>
</svg>
