<?xml version="1.0" encoding="utf-8"?>
<!-- Generator: Adobe Illustrator 17.0.1, SVG Export Plug-In . SVG Version: 6.00 Build 0)  -->
<!DOCTYPE svg PUBLIC "-//W3C//DTD SVG 1.1//EN" "http://www.w3.org/Graphics/SVG/1.1/DTD/svg11.dtd">
<svg version="1.1" id="Layer_1" xmlns="http://www.w3.org/2000/svg" xmlns:xlink="http://www.w3.org/1999/xlink" x="0px" y="0px"
	 width="37.537px" height="37.537px" viewBox="0 0 37.537 37.537" enable-background="new 0 0 37.537 37.537" xml:space="preserve">
<circle opacity="0.5" fill="#222222" enable-background="new    " cx="18.768" cy="18.769" r="18.769"/>
<path fill="#5C5C5A" d="M28.269,11.992c0-1.489-1.207-2.724-2.695-2.724H11.963c-1.488,0-2.695,1.235-2.695,2.724v13.609
	c0,1.489,1.207,2.668,2.695,2.668h13.611c1.488,0,2.695-1.178,2.695-2.668V11.992z M15.502,18.959
	c0.001-0.017,0.003-0.035,0.004-0.053c0.004-0.042,0.008-0.084,0.012-0.126c0.002-0.019,0.005-0.038,0.007-0.057
	c0.006-0.04,0.011-0.081,0.018-0.12c0.004-0.017,0.006-0.035,0.01-0.053c0.008-0.043,0.017-0.087,0.027-0.128
	c0.003-0.013,0.006-0.027,0.009-0.04c0.012-0.051,0.026-0.102,0.042-0.153c0.001-0.004,0.002-0.008,0.004-0.012
	c0.396-1.314,1.617-2.274,3.059-2.274c1.441,0,2.662,0.96,3.06,2.274c0.001,0.004,0.002,0.008,0.003,0.012
	c0.015,0.051,0.029,0.101,0.041,0.153c0.003,0.013,0.007,0.027,0.01,0.04c0.009,0.042,0.017,0.086,0.027,0.128
	c0.004,0.018,0.007,0.035,0.009,0.053c0.006,0.04,0.012,0.08,0.019,0.12c0.002,0.02,0.004,0.038,0.006,0.057
	c0.005,0.042,0.008,0.084,0.011,0.126c0.002,0.017,0.003,0.035,0.005,0.053c0.003,0.059,0.005,0.119,0.005,0.18
	c0,1.763-1.433,3.195-3.195,3.195c-1.762,0-3.196-1.433-3.196-3.195C15.497,19.078,15.498,19.018,15.502,18.959z M25.228,25.983
	c0,0.089,0.4,0.385,0.31,0.385H11.847c-0.09,0-0.68-0.296-0.68-0.385v-7.975h1.976c-0.117,0-0.179,0.785-0.179,1.276
	c0,3.158,2.569,5.654,5.728,5.654c3.158,0,5.728-2.459,5.728-5.617c0-0.492-0.062-1.314-0.179-1.314h0.987V25.983z M25.228,14.497
	c0,0.276-0.033,0.471-0.31,0.471h-2.8c-0.277,0-0.69-0.195-0.69-0.471v-2.802c0-0.276,0.413-0.528,0.69-0.528h2.8
	c0.277,0,0.31,0.252,0.31,0.528V14.497z"/>
</svg>
